<svg width="17" height="17" viewBox="0 0 17 17" fill="none" xmlns="http://www.w3.org/2000/svg">
<path fill-rule="evenodd" clip-rule="evenodd" d="M8.50001 16.9001C10.7278 16.9001 12.8644 16.0151 14.4397 14.4398C16.015 12.8645 16.9 10.7279 16.9 8.5001C16.9 6.27228 16.015 4.13571 14.4397 2.5604C12.8644 0.985095 10.7278 0.100098 8.50001 0.100098C6.27219 0.100098 4.13561 0.985095 2.56031 2.5604C0.985004 4.13571 0.100006 6.27228 0.100006 8.5001C0.100006 10.7279 0.985004 12.8645 2.56031 14.4398C4.13561 16.0151 6.27219 16.9001 8.50001 16.9001ZM12.3924 7.14245C12.5836 6.94441 12.6895 6.67918 12.6871 6.40388C12.6847 6.12857 12.5742 5.86522 12.3796 5.67054C12.1849 5.47586 11.9215 5.36543 11.6462 5.36304C11.3709 5.36065 11.1057 5.46648 10.9077 5.65775L7.45001 9.1154L6.09236 7.75775C5.89432 7.56648 5.62909 7.46065 5.35378 7.46304C5.07848 7.46543 4.81512 7.57586 4.62045 7.77054C4.42577 7.96522 4.31534 8.22857 4.31295 8.50388C4.31056 8.77918 4.41639 9.04441 4.60766 9.24245L6.70766 11.3424C6.90456 11.5393 7.17158 11.6499 7.45001 11.6499C7.72843 11.6499 7.99545 11.5393 8.19236 11.3424L12.3924 7.14245Z" fill="#F8F8F8"/>
</svg>
